<svg xmlns="http://www.w3.org/2000/svg" width="18" height="14.997" viewBox="0 0 18 14.997">
  <path id="cloud-download-alt_1_" data-name="cloud-download-alt (1)" d="M13.48,5.861a.771.771,0,0,1-.556-.427A6.04,6.04,0,0,0,6.373,2.105,5.96,5.96,0,0,0,1.585,6.981a6.1,6.1,0,0,0,.025,2.167.745.745,0,0,1-.26.676A4.125,4.125,0,0,0,4.124,17h8.25A5.625,5.625,0,0,0,13.48,5.861Zm-2.14,5.672-2.03,2.03A1.5,1.5,0,0,1,8.257,14H8.243a1.5,1.5,0,0,1-1.054-.438l-2.03-2.03A.75.75,0,0,1,6.22,10.472l1.28,1.28V8A.75.75,0,1,1,9,8v3.75l1.28-1.28a.75.75,0,0,1,1.061,1.061Z" transform="translate(0.001 -2.004)" fill="#fff"/>
</svg>
