<svg xmlns="http://www.w3.org/2000/svg" width="14" height="14" viewBox="0 0 14 14">
  <path id="_41483f222dc505f666a21497a05ef268" data-name="41483f222dc505f666a21497a05ef268" d="M39,32a7,7,0,1,0,7,7A7,7,0,0,0,39,32Zm5.572,4.766-1.922.591a4.033,4.033,0,0,0-2.009-2.009l.591-1.922a6.033,6.033,0,0,1,3.341,3.341ZM39,42a3,3,0,1,1,3-3A3,3,0,0,1,39,42Zm-4.244-7.244a5.962,5.962,0,0,1,2.009-1.328l.591,1.922a4.034,4.034,0,0,0-2.009,2.009l-1.922-.591A6.046,6.046,0,0,1,34.756,34.756Zm-1.328,6.478,1.922-.591a4.034,4.034,0,0,0,2.009,2.009l-.591,1.922a6.033,6.033,0,0,1-3.341-3.341Zm9.816,2.009a5.962,5.962,0,0,1-2.009,1.328l-.591-1.922a4.034,4.034,0,0,0,2.009-2.009l1.922.591A6.047,6.047,0,0,1,43.244,43.244Z" transform="translate(-32 -32)" fill="#898989"/>
</svg>
