<svg xmlns="http://www.w3.org/2000/svg" width="419.404" height="58.07" viewBox="0 0 419.404 58.07">
  <g id="Group_2583" data-name="Group 2583" transform="translate(-90 -350)">
    <path id="Path_1265" data-name="Path 1265" d="M394.852,181.044a1.124,1.124,0,0,0-1.124,1.124V202.6a1.124,1.124,0,0,0,2.248,0V182.168A1.124,1.124,0,0,0,394.852,181.044Z" transform="translate(-285.742 186.956)" fill="#6551f2"/>
    <path id="Path_1396" data-name="Path 1396" d="M394.852,181.044a1.124,1.124,0,0,0-1.124,1.124V202.6a1.124,1.124,0,0,0,2.248,0V182.168A1.124,1.124,0,0,0,394.852,181.044Z" transform="translate(-76.915 186.956)" fill="#6551f2"/>
    <path id="Path_1372" data-name="Path 1372" d="M394.852,181.044a1.124,1.124,0,0,0-1.124,1.124V202.6a1.124,1.124,0,0,0,2.248,0V182.168A1.124,1.124,0,0,0,394.852,181.044Z" transform="translate(-179.329 186.956)" fill="#6551f2"/>
    <path id="Path_1421" data-name="Path 1421" d="M394.852,181.044a1.124,1.124,0,0,0-1.124,1.124V202.6a1.124,1.124,0,0,0,2.248,0V182.168A1.124,1.124,0,0,0,394.852,181.044Z" transform="translate(29.498 186.956)" fill="#6551f2"/>
    <path id="Path_1266" data-name="Path 1266" d="M413.9,189.426h0a1.124,1.124,0,0,0-1.124,1.124v10.2a1.124,1.124,0,0,0,1.124,1.124h0a1.124,1.124,0,0,0,1.124-1.124v-10.2A1.124,1.124,0,0,0,413.9,189.426Z" transform="translate(-300.29 183.574)" fill="#6551f2"/>
    <path id="Path_1397" data-name="Path 1397" d="M413.9,189.426h0a1.124,1.124,0,0,0-1.124,1.124v10.2a1.124,1.124,0,0,0,1.124,1.124h0a1.124,1.124,0,0,0,1.124-1.124v-10.2A1.124,1.124,0,0,0,413.9,189.426Z" transform="translate(-91.463 183.574)" fill="#6551f2"/>
    <path id="Path_1379" data-name="Path 1379" d="M413.9,189.426h0a1.124,1.124,0,0,0-1.124,1.124v10.2a1.124,1.124,0,0,0,1.124,1.124h0a1.124,1.124,0,0,0,1.124-1.124v-10.2A1.124,1.124,0,0,0,413.9,189.426Z" transform="translate(-193.877 183.574)" fill="#6551f2"/>
    <path id="Path_1422" data-name="Path 1422" d="M413.9,189.426h0a1.124,1.124,0,0,0-1.124,1.124v10.2a1.124,1.124,0,0,0,1.124,1.124h0a1.124,1.124,0,0,0,1.124-1.124v-10.2A1.124,1.124,0,0,0,413.9,189.426Z" transform="translate(14.95 183.574)" fill="#6551f2"/>
    <path id="Path_1267" data-name="Path 1267" d="M337.72,180.453a1.124,1.124,0,0,0-1.124,1.124v10.086a.973.973,0,0,0,.973.973h.3a.973.973,0,0,0,.973-.973V181.577A1.124,1.124,0,0,0,337.72,180.453Z" transform="translate(-242.1 192.547)" fill="#6551f2"/>
    <path id="Path_1398" data-name="Path 1398" d="M337.72,180.453a1.124,1.124,0,0,0-1.124,1.124v10.086a.973.973,0,0,0,.973.973h.3a.973.973,0,0,0,.973-.973V181.577A1.124,1.124,0,0,0,337.72,180.453Z" transform="translate(-33.272 192.547)" fill="#6551f2"/>
    <path id="Path_1380" data-name="Path 1380" d="M337.72,180.453a1.124,1.124,0,0,0-1.124,1.124v10.086a.973.973,0,0,0,.973.973h.3a.973.973,0,0,0,.973-.973V181.577A1.124,1.124,0,0,0,337.72,180.453Z" transform="translate(-135.687 192.547)" fill="#6551f2"/>
    <path id="Path_1423" data-name="Path 1423" d="M337.72,180.453a1.124,1.124,0,0,0-1.124,1.124v10.086a.973.973,0,0,0,.973.973h.3a.973.973,0,0,0,.973-.973V181.577A1.124,1.124,0,0,0,337.72,180.453Z" transform="translate(73.141 192.547)" fill="#6551f2"/>
    <path id="Path_1270" data-name="Path 1270" d="M585.292,223.676a1.124,1.124,0,0,0-1.124,1.124v22.925a1.124,1.124,0,0,0,2.248,0V224.8A1.124,1.124,0,0,0,585.292,223.676Z" transform="translate(-431.969 142.324)" fill="#6551f2"/>
    <path id="Path_1399" data-name="Path 1399" d="M585.292,223.676a1.124,1.124,0,0,0-1.124,1.124v22.925a1.124,1.124,0,0,0,2.248,0V224.8A1.124,1.124,0,0,0,585.292,223.676Z" transform="translate(-223.142 142.324)" fill="#6551f2"/>
    <path id="Path_1381" data-name="Path 1381" d="M585.292,223.676a1.124,1.124,0,0,0-1.124,1.124v22.925a1.124,1.124,0,0,0,2.248,0V224.8A1.124,1.124,0,0,0,585.292,223.676Z" transform="translate(-325.556 142.324)" fill="#6551f2"/>
    <path id="Path_1424" data-name="Path 1424" d="M585.292,223.676a1.124,1.124,0,0,0-1.124,1.124v22.925a1.124,1.124,0,0,0,2.248,0V224.8A1.124,1.124,0,0,0,585.292,223.676Z" transform="translate(-116.729 142.324)" fill="#6551f2"/>
    <path id="Path_1271" data-name="Path 1271" d="M604.336,146.725a1.124,1.124,0,0,0-1.124,1.124v26.486a1.124,1.124,0,0,0,2.248,0V147.849A1.124,1.124,0,0,0,604.336,146.725Z" transform="translate(-446.517 218.275)" fill="#6551f2"/>
    <path id="Path_1400" data-name="Path 1400" d="M604.336,146.725a1.124,1.124,0,0,0-1.124,1.124v26.486a1.124,1.124,0,0,0,2.248,0V147.849A1.124,1.124,0,0,0,604.336,146.725Z" transform="translate(-237.69 218.275)" fill="#6551f2"/>
    <path id="Path_1382" data-name="Path 1382" d="M604.336,146.725a1.124,1.124,0,0,0-1.124,1.124v26.486a1.124,1.124,0,0,0,2.248,0V147.849A1.124,1.124,0,0,0,604.336,146.725Z" transform="translate(-340.104 218.275)" fill="#6551f2"/>
    <path id="Path_1425" data-name="Path 1425" d="M604.336,146.725a1.124,1.124,0,0,0-1.124,1.124v26.486a1.124,1.124,0,0,0,2.248,0V147.849A1.124,1.124,0,0,0,604.336,146.725Z" transform="translate(-131.277 218.275)" fill="#6551f2"/>
    <path id="Path_1273" data-name="Path 1273" d="M566.248,178.746a1.124,1.124,0,0,0-1.124,1.124v35.476a1.124,1.124,0,1,0,2.248,0V179.87A1.124,1.124,0,0,0,566.248,178.746Z" transform="translate(-417.422 181.254)" fill="#6551f2"/>
    <path id="Path_1401" data-name="Path 1401" d="M566.248,178.746a1.124,1.124,0,0,0-1.124,1.124v35.476a1.124,1.124,0,1,0,2.248,0V179.87A1.124,1.124,0,0,0,566.248,178.746Z" transform="translate(-208.595 181.254)" fill="#6551f2"/>
    <path id="Path_1383" data-name="Path 1383" d="M566.248,178.746a1.124,1.124,0,0,0-1.124,1.124v35.476a1.124,1.124,0,1,0,2.248,0V179.87A1.124,1.124,0,0,0,566.248,178.746Z" transform="translate(-311.009 181.254)" fill="#6551f2"/>
    <path id="Path_1426" data-name="Path 1426" d="M566.248,178.746a1.124,1.124,0,0,0-1.124,1.124v35.476a1.124,1.124,0,1,0,2.248,0V179.87A1.124,1.124,0,0,0,566.248,178.746Z" transform="translate(-102.182 181.254)" fill="#6551f2"/>
    <path id="Path_1274" data-name="Path 1274" d="M356.764,179.38a1.124,1.124,0,0,0-1.124,1.124v14.867a.973.973,0,0,0,.973.973h.3a.973.973,0,0,0,.973-.973V180.5A1.124,1.124,0,0,0,356.764,179.38Z" transform="translate(-256.646 191.62)" fill="#6551f2"/>
    <path id="Path_1402" data-name="Path 1402" d="M356.764,179.38a1.124,1.124,0,0,0-1.124,1.124v14.867a.973.973,0,0,0,.973.973h.3a.973.973,0,0,0,.973-.973V180.5A1.124,1.124,0,0,0,356.764,179.38Z" transform="translate(-47.819 191.62)" fill="#6551f2"/>
    <path id="Path_1384" data-name="Path 1384" d="M356.764,179.38a1.124,1.124,0,0,0-1.124,1.124v14.867a.973.973,0,0,0,.973.973h.3a.973.973,0,0,0,.973-.973V180.5A1.124,1.124,0,0,0,356.764,179.38Z" transform="translate(-150.233 191.62)" fill="#6551f2"/>
    <path id="Path_1427" data-name="Path 1427" d="M356.764,179.38a1.124,1.124,0,0,0-1.124,1.124v14.867a.973.973,0,0,0,.973.973h.3a.973.973,0,0,0,.973-.973V180.5A1.124,1.124,0,0,0,356.764,179.38Z" transform="translate(58.594 191.62)" fill="#6551f2"/>
    <path id="Path_1275" data-name="Path 1275" d="M356.764,150.68a1.124,1.124,0,0,0-1.124,1.124v2.559a.973.973,0,0,0,.973.973h.3a.973.973,0,0,0,.973-.973V151.8A1.124,1.124,0,0,0,356.764,150.68Z" transform="translate(-265.64 226.32)" fill="#6551f2"/>
    <path id="Path_1385" data-name="Path 1385" d="M356.764,150.68a1.124,1.124,0,0,0-1.124,1.124v2.559a.973.973,0,0,0,.973.973h.3a.973.973,0,0,0,.973-.973V151.8A1.124,1.124,0,0,0,356.764,150.68Z" transform="translate(-159.227 226.32)" fill="#6551f2"/>
    <path id="Path_1404" data-name="Path 1404" d="M356.764,150.68a1.124,1.124,0,0,0-1.124,1.124v2.559a.973.973,0,0,0,.973.973h.3a.973.973,0,0,0,.973-.973V151.8A1.124,1.124,0,0,0,356.764,150.68Z" transform="translate(49.601 226.32)" fill="#6551f2"/>
    <path id="Path_1276" data-name="Path 1276" d="M528.16,46.1a1.124,1.124,0,0,0-1.124,1.124v55.6a1.124,1.124,0,0,0,2.248,0v-55.6A1.124,1.124,0,0,0,528.16,46.1Z" transform="translate(-388.325 303.902)" fill="#6551f2"/>
    <path id="Path_1405" data-name="Path 1405" d="M528.16,46.1a1.124,1.124,0,0,0-1.124,1.124v55.6a1.124,1.124,0,0,0,2.248,0v-55.6A1.124,1.124,0,0,0,528.16,46.1Z" transform="translate(-179.498 303.902)" fill="#6551f2"/>
    <path id="Path_1373" data-name="Path 1373" d="M528.16,46.1a1.124,1.124,0,0,0-1.124,1.124v55.6a1.124,1.124,0,0,0,2.248,0v-55.6A1.124,1.124,0,0,0,528.16,46.1Z" transform="translate(-281.912 303.902)" fill="#6551f2"/>
    <path id="Path_1428" data-name="Path 1428" d="M528.16,46.1a1.124,1.124,0,0,0-1.124,1.124v55.6a1.124,1.124,0,0,0,2.248,0v-55.6A1.124,1.124,0,0,0,528.16,46.1Z" transform="translate(-73.085 303.902)" fill="#6551f2"/>
    <path id="Path_1278" data-name="Path 1278" d="M471.028,69.806A1.124,1.124,0,0,0,469.9,70.93v55.822a1.124,1.124,0,1,0,2.248,0V70.93A1.124,1.124,0,0,0,471.028,69.806Z" transform="translate(-344.683 280.194)" fill="#6551f2"/>
    <path id="Path_1406" data-name="Path 1406" d="M471.028,69.806A1.124,1.124,0,0,0,469.9,70.93v55.822a1.124,1.124,0,1,0,2.248,0V70.93A1.124,1.124,0,0,0,471.028,69.806Z" transform="translate(-135.855 280.194)" fill="#6551f2"/>
    <path id="Path_1374" data-name="Path 1374" d="M471.028,69.806A1.124,1.124,0,0,0,469.9,70.93v55.822a1.124,1.124,0,1,0,2.248,0V70.93A1.124,1.124,0,0,0,471.028,69.806Z" transform="translate(-238.27 280.194)" fill="#6551f2"/>
    <path id="Path_1429" data-name="Path 1429" d="M471.028,69.806A1.124,1.124,0,0,0,469.9,70.93v55.822a1.124,1.124,0,1,0,2.248,0V70.93A1.124,1.124,0,0,0,471.028,69.806Z" transform="translate(-29.442 280.194)" fill="#6551f2"/>
    <path id="Path_1279" data-name="Path 1279" d="M490.072,108.554a1.124,1.124,0,0,0-1.124,1.124v27.014a1.124,1.124,0,1,0,2.248,0V109.678A1.124,1.124,0,0,0,490.072,108.554Z" transform="translate(-359.23 255.446)" fill="#6551f2"/>
    <path id="Path_1407" data-name="Path 1407" d="M490.072,108.554a1.124,1.124,0,0,0-1.124,1.124v27.014a1.124,1.124,0,1,0,2.248,0V109.678A1.124,1.124,0,0,0,490.072,108.554Z" transform="translate(-150.403 255.446)" fill="#6551f2"/>
    <path id="Path_1375" data-name="Path 1375" d="M490.072,108.554a1.124,1.124,0,0,0-1.124,1.124v27.014a1.124,1.124,0,1,0,2.248,0V109.678A1.124,1.124,0,0,0,490.072,108.554Z" transform="translate(-252.817 255.446)" fill="#6551f2"/>
    <path id="Path_1430" data-name="Path 1430" d="M490.072,108.554a1.124,1.124,0,0,0-1.124,1.124v27.014a1.124,1.124,0,1,0,2.248,0V109.678A1.124,1.124,0,0,0,490.072,108.554Z" transform="translate(-43.99 255.446)" fill="#6551f2"/>
    <path id="Path_1281" data-name="Path 1281" d="M509.116,153.857a1.124,1.124,0,0,0-1.124,1.124V194.14a1.124,1.124,0,0,0,2.248,0V154.981A1.124,1.124,0,0,0,509.116,153.857Z" transform="translate(-373.777 204.143)" fill="#6551f2"/>
    <path id="Path_1408" data-name="Path 1408" d="M509.116,153.857a1.124,1.124,0,0,0-1.124,1.124V194.14a1.124,1.124,0,0,0,2.248,0V154.981A1.124,1.124,0,0,0,509.116,153.857Z" transform="translate(-164.95 204.143)" fill="#6551f2"/>
    <path id="Path_1376" data-name="Path 1376" d="M509.116,153.857a1.124,1.124,0,0,0-1.124,1.124V194.14a1.124,1.124,0,0,0,2.248,0V154.981A1.124,1.124,0,0,0,509.116,153.857Z" transform="translate(-267.364 204.143)" fill="#6551f2"/>
    <path id="Path_1431" data-name="Path 1431" d="M509.116,153.857a1.124,1.124,0,0,0-1.124,1.124V194.14a1.124,1.124,0,0,0,2.248,0V154.981A1.124,1.124,0,0,0,509.116,153.857Z" transform="translate(-58.537 204.143)" fill="#6551f2"/>
    <path id="Path_1284" data-name="Path 1284" d="M451.984,132.416a1.124,1.124,0,0,0-1.124,1.124v31.944a1.124,1.124,0,0,0,2.248,0V133.54A1.124,1.124,0,0,0,451.984,132.416Z" transform="translate(-330.135 229.584)" fill="#6551f2"/>
    <path id="Path_1409" data-name="Path 1409" d="M451.984,132.416a1.124,1.124,0,0,0-1.124,1.124v31.944a1.124,1.124,0,0,0,2.248,0V133.54A1.124,1.124,0,0,0,451.984,132.416Z" transform="translate(-121.308 229.584)" fill="#6551f2"/>
    <path id="Path_1377" data-name="Path 1377" d="M451.984,132.416a1.124,1.124,0,0,0-1.124,1.124v31.944a1.124,1.124,0,0,0,2.248,0V133.54A1.124,1.124,0,0,0,451.984,132.416Z" transform="translate(-223.722 229.584)" fill="#6551f2"/>
    <path id="Path_1432" data-name="Path 1432" d="M451.984,132.416a1.124,1.124,0,0,0-1.124,1.124v31.944a1.124,1.124,0,0,0,2.248,0V133.54A1.124,1.124,0,0,0,451.984,132.416Z" transform="translate(-14.895 229.584)" fill="#6551f2"/>
    <path id="Path_1285" data-name="Path 1285" d="M547.2,115.762a1.124,1.124,0,0,0-1.124,1.124V155.18a1.124,1.124,0,1,0,2.248,0V116.886A1.124,1.124,0,0,0,547.2,115.762Z" transform="translate(-402.873 243.238)" fill="#6551f2"/>
    <path id="Path_1410" data-name="Path 1410" d="M547.2,115.762a1.124,1.124,0,0,0-1.124,1.124V155.18a1.124,1.124,0,1,0,2.248,0V116.886A1.124,1.124,0,0,0,547.2,115.762Z" transform="translate(-194.046 243.238)" fill="#6551f2"/>
    <path id="Path_1386" data-name="Path 1386" d="M547.2,115.762a1.124,1.124,0,0,0-1.124,1.124V155.18a1.124,1.124,0,1,0,2.248,0V116.886A1.124,1.124,0,0,0,547.2,115.762Z" transform="translate(-296.46 243.238)" fill="#6551f2"/>
    <path id="Path_1433" data-name="Path 1433" d="M547.2,115.762a1.124,1.124,0,0,0-1.124,1.124V155.18a1.124,1.124,0,1,0,2.248,0V116.886A1.124,1.124,0,0,0,547.2,115.762Z" transform="translate(-87.633 243.238)" fill="#6551f2"/>
    <path id="Path_1286" data-name="Path 1286" d="M432.94,168.69a1.124,1.124,0,0,0-1.124,1.124v18.11a1.124,1.124,0,0,0,2.248,0v-18.11A1.124,1.124,0,0,0,432.94,168.69Z" transform="translate(-315.588 200.31)" fill="#6551f2"/>
    <path id="Path_1411" data-name="Path 1411" d="M432.94,168.69a1.124,1.124,0,0,0-1.124,1.124v18.11a1.124,1.124,0,0,0,2.248,0v-18.11A1.124,1.124,0,0,0,432.94,168.69Z" transform="translate(-106.761 200.31)" fill="#6551f2"/>
    <path id="Path_1387" data-name="Path 1387" d="M432.94,168.69a1.124,1.124,0,0,0-1.124,1.124v18.11a1.124,1.124,0,0,0,2.248,0v-18.11A1.124,1.124,0,0,0,432.94,168.69Z" transform="translate(-209.175 200.31)" fill="#6551f2"/>
    <path id="Path_1434" data-name="Path 1434" d="M432.94,168.69a1.124,1.124,0,0,0-1.124,1.124v18.11a1.124,1.124,0,0,0,2.248,0v-18.11A1.124,1.124,0,0,0,432.94,168.69Z" transform="translate(-0.348 200.31)" fill="#6551f2"/>
    <path id="Path_1288" data-name="Path 1288" d="M375.808,124.154h0a1.124,1.124,0,0,0-1.124,1.124v19.627a.973.973,0,0,0,.973.973h.3a.973.973,0,0,0,.973-.973V125.278A1.124,1.124,0,0,0,375.808,124.154Z" transform="translate(-271.194 243.846)" fill="#6551f2"/>
    <path id="Path_1412" data-name="Path 1412" d="M375.808,124.154h0a1.124,1.124,0,0,0-1.124,1.124v19.627a.973.973,0,0,0,.973.973h.3a.973.973,0,0,0,.973-.973V125.278A1.124,1.124,0,0,0,375.808,124.154Z" transform="translate(-62.367 243.846)" fill="#6551f2"/>
    <path id="Path_1378" data-name="Path 1378" d="M375.808,124.154h0a1.124,1.124,0,0,0-1.124,1.124v19.627a.973.973,0,0,0,.973.973h.3a.973.973,0,0,0,.973-.973V125.278A1.124,1.124,0,0,0,375.808,124.154Z" transform="translate(-164.781 243.846)" fill="#6551f2"/>
    <path id="Path_1435" data-name="Path 1435" d="M375.808,124.154h0a1.124,1.124,0,0,0-1.124,1.124v19.627a.973.973,0,0,0,.973.973h.3a.973.973,0,0,0,.973-.973V125.278A1.124,1.124,0,0,0,375.808,124.154Z" transform="translate(44.046 243.846)" fill="#6551f2"/>
    <path id="Path_1291" data-name="Path 1291" d="M680.512,201.1a1.124,1.124,0,0,0-1.124,1.124v24.816a1.124,1.124,0,0,0,2.248,0V202.222A1.124,1.124,0,0,0,680.512,201.1Z" transform="translate(-505.457 164.902)" fill="#6551f2"/>
    <path id="Path_1413" data-name="Path 1413" d="M680.512,201.1a1.124,1.124,0,0,0-1.124,1.124v24.816a1.124,1.124,0,0,0,2.248,0V202.222A1.124,1.124,0,0,0,680.512,201.1Z" transform="translate(-296.629 164.902)" fill="#6551f2"/>
    <path id="Path_1390" data-name="Path 1390" d="M680.512,201.1a1.124,1.124,0,0,0-1.124,1.124v24.816a1.124,1.124,0,0,0,2.248,0V202.222A1.124,1.124,0,0,0,680.512,201.1Z" transform="translate(-399.043 164.902)" fill="#6551f2"/>
    <path id="Path_1436" data-name="Path 1436" d="M680.512,201.1a1.124,1.124,0,0,0-1.124,1.124v24.816a1.124,1.124,0,0,0,2.248,0V202.222A1.124,1.124,0,0,0,680.512,201.1Z" transform="translate(-190.216 164.902)" fill="#6551f2"/>
    <path id="Path_1295" data-name="Path 1295" d="M756.688,203.337h0a1.124,1.124,0,0,0-1.124,1.124v33.59a1.124,1.124,0,0,0,1.124,1.124h0a1.124,1.124,0,0,0,1.124-1.124v-33.59A1.124,1.124,0,0,0,756.688,203.337Z" transform="translate(-563.648 157.663)" fill="#6551f2"/>
    <path id="Path_1414" data-name="Path 1414" d="M756.688,203.337h0a1.124,1.124,0,0,0-1.124,1.124v33.59a1.124,1.124,0,0,0,1.124,1.124h0a1.124,1.124,0,0,0,1.124-1.124v-33.59A1.124,1.124,0,0,0,756.688,203.337Z" transform="translate(-354.821 157.663)" fill="#6551f2"/>
    <path id="Path_1394" data-name="Path 1394" d="M756.688,203.337h0a1.124,1.124,0,0,0-1.124,1.124v33.59a1.124,1.124,0,0,0,1.124,1.124h0a1.124,1.124,0,0,0,1.124-1.124v-33.59A1.124,1.124,0,0,0,756.688,203.337Z" transform="translate(-457.235 157.663)" fill="#6551f2"/>
    <path id="Path_1441" data-name="Path 1441" d="M756.688,203.337h0a1.124,1.124,0,0,0-1.124,1.124v33.59a1.124,1.124,0,0,0,1.124,1.124h0a1.124,1.124,0,0,0,1.124-1.124v-33.59A1.124,1.124,0,0,0,756.688,203.337Z" transform="translate(-248.408 157.663)" fill="#6551f2"/>
    <path id="Path_1296" data-name="Path 1296" d="M737.644,199.014a1.124,1.124,0,0,0-1.124,1.124v25.61a1.124,1.124,0,1,0,2.248,0v-25.61A1.124,1.124,0,0,0,737.644,199.014Z" transform="translate(-549.1 165.986)" fill="#6551f2"/>
    <path id="Path_1415" data-name="Path 1415" d="M737.644,199.014a1.124,1.124,0,0,0-1.124,1.124v25.61a1.124,1.124,0,1,0,2.248,0v-25.61A1.124,1.124,0,0,0,737.644,199.014Z" transform="translate(-340.273 165.986)" fill="#6551f2"/>
    <path id="Path_1395" data-name="Path 1395" d="M737.644,199.014a1.124,1.124,0,0,0-1.124,1.124v25.61a1.124,1.124,0,1,0,2.248,0v-25.61A1.124,1.124,0,0,0,737.644,199.014Z" transform="translate(-442.687 165.986)" fill="#6551f2"/>
    <path id="Path_1442" data-name="Path 1442" d="M737.644,199.014a1.124,1.124,0,0,0-1.124,1.124v25.61a1.124,1.124,0,1,0,2.248,0v-25.61A1.124,1.124,0,0,0,737.644,199.014Z" transform="translate(-233.86 165.986)" fill="#6551f2"/>
    <path id="Path_1298" data-name="Path 1298" d="M699.556,188.794a1.124,1.124,0,0,0-1.124,1.124v14.749a1.124,1.124,0,0,0,2.248,0V189.918A1.124,1.124,0,0,0,699.556,188.794Z" transform="translate(-520.004 182.206)" fill="#6551f2"/>
    <path id="Path_1416" data-name="Path 1416" d="M699.556,188.794a1.124,1.124,0,0,0-1.124,1.124v14.749a1.124,1.124,0,0,0,2.248,0V189.918A1.124,1.124,0,0,0,699.556,188.794Z" transform="translate(-311.177 182.206)" fill="#6551f2"/>
    <path id="Path_1392" data-name="Path 1392" d="M699.556,188.794a1.124,1.124,0,0,0-1.124,1.124v14.749a1.124,1.124,0,0,0,2.248,0V189.918A1.124,1.124,0,0,0,699.556,188.794Z" transform="translate(-413.591 182.206)" fill="#6551f2"/>
    <path id="Path_1437" data-name="Path 1437" d="M699.556,188.794a1.124,1.124,0,0,0-1.124,1.124v14.749a1.124,1.124,0,0,0,2.248,0V189.918A1.124,1.124,0,0,0,699.556,188.794Z" transform="translate(-204.764 182.206)" fill="#6551f2"/>
    <path id="Path_1300" data-name="Path 1300" d="M642.424,177.083a1.124,1.124,0,0,0-1.124,1.124v14.909a1.124,1.124,0,0,0,2.248,0V178.207A1.124,1.124,0,0,0,642.424,177.083Z" transform="translate(-476.362 192.917)" fill="#6551f2"/>
    <path id="Path_1417" data-name="Path 1417" d="M642.424,177.083a1.124,1.124,0,0,0-1.124,1.124v14.909a1.124,1.124,0,0,0,2.248,0V178.207A1.124,1.124,0,0,0,642.424,177.083Z" transform="translate(-267.535 192.917)" fill="#6551f2"/>
    <path id="Path_1388" data-name="Path 1388" d="M642.424,177.083a1.124,1.124,0,0,0-1.124,1.124v14.909a1.124,1.124,0,0,0,2.248,0V178.207A1.124,1.124,0,0,0,642.424,177.083Z" transform="translate(-369.949 192.917)" fill="#6551f2"/>
    <path id="Path_1438" data-name="Path 1438" d="M642.424,177.083a1.124,1.124,0,0,0-1.124,1.124v14.909a1.124,1.124,0,0,0,2.248,0V178.207A1.124,1.124,0,0,0,642.424,177.083Z" transform="translate(-161.122 192.917)" fill="#6551f2"/>
    <path id="Path_1301" data-name="Path 1301" d="M623.38,151.1a1.124,1.124,0,0,0-1.124,1.124v24.816a1.124,1.124,0,0,0,2.248,0V152.229A1.124,1.124,0,0,0,623.38,151.1Z" transform="translate(-461.813 214.895)" fill="#6551f2"/>
    <path id="Path_1418" data-name="Path 1418" d="M623.38,151.1a1.124,1.124,0,0,0-1.124,1.124v24.816a1.124,1.124,0,0,0,2.248,0V152.229A1.124,1.124,0,0,0,623.38,151.1Z" transform="translate(-252.986 214.895)" fill="#6551f2"/>
    <path id="Path_1389" data-name="Path 1389" d="M623.38,151.1a1.124,1.124,0,0,0-1.124,1.124v24.816a1.124,1.124,0,0,0,2.248,0V152.229A1.124,1.124,0,0,0,623.38,151.1Z" transform="translate(-355.4 214.895)" fill="#6551f2"/>
    <path id="Path_1439" data-name="Path 1439" d="M623.38,151.1a1.124,1.124,0,0,0-1.124,1.124v24.816a1.124,1.124,0,0,0,2.248,0V152.229A1.124,1.124,0,0,0,623.38,151.1Z" transform="translate(-146.573 214.895)" fill="#6551f2"/>
    <path id="Path_1302" data-name="Path 1302" d="M661.468,218.478h0a1.124,1.124,0,0,0-1.124,1.124V237.79a1.124,1.124,0,0,0,1.124,1.124h0a1.124,1.124,0,0,0,1.124-1.124V219.6A1.124,1.124,0,0,0,661.468,218.478Z" transform="translate(-490.91 150.522)" fill="#6551f2"/>
    <path id="Path_1419" data-name="Path 1419" d="M661.468,218.478h0a1.124,1.124,0,0,0-1.124,1.124V237.79a1.124,1.124,0,0,0,1.124,1.124h0a1.124,1.124,0,0,0,1.124-1.124V219.6A1.124,1.124,0,0,0,661.468,218.478Z" transform="translate(-282.083 150.522)" fill="#6551f2"/>
    <path id="Path_1391" data-name="Path 1391" d="M661.468,218.478h0a1.124,1.124,0,0,0-1.124,1.124V237.79a1.124,1.124,0,0,0,1.124,1.124h0a1.124,1.124,0,0,0,1.124-1.124V219.6A1.124,1.124,0,0,0,661.468,218.478Z" transform="translate(-384.497 150.522)" fill="#6551f2"/>
    <path id="Path_1440" data-name="Path 1440" d="M661.468,218.478h0a1.124,1.124,0,0,0-1.124,1.124V237.79a1.124,1.124,0,0,0,1.124,1.124h0a1.124,1.124,0,0,0,1.124-1.124V219.6A1.124,1.124,0,0,0,661.468,218.478Z" transform="translate(-175.669 150.522)" fill="#6551f2"/>
    <path id="Path_1303" data-name="Path 1303" d="M718.6,219.452a1.124,1.124,0,0,0-1.124,1.124v17.817a1.124,1.124,0,1,0,2.248,0V220.576A1.124,1.124,0,0,0,718.6,219.452Z" transform="translate(-534.552 149.548)" fill="#6551f2"/>
    <path id="Path_1420" data-name="Path 1420" d="M718.6,219.452a1.124,1.124,0,0,0-1.124,1.124v17.817a1.124,1.124,0,1,0,2.248,0V220.576A1.124,1.124,0,0,0,718.6,219.452Z" transform="translate(-325.725 149.548)" fill="#6551f2"/>
    <path id="Path_1393" data-name="Path 1393" d="M718.6,219.452a1.124,1.124,0,0,0-1.124,1.124v17.817a1.124,1.124,0,1,0,2.248,0V220.576A1.124,1.124,0,0,0,718.6,219.452Z" transform="translate(-428.139 149.548)" fill="#6551f2"/>
    <path id="Path_1443" data-name="Path 1443" d="M718.6,219.452a1.124,1.124,0,0,0-1.124,1.124v17.817a1.124,1.124,0,1,0,2.248,0V220.576A1.124,1.124,0,0,0,718.6,219.452Z" transform="translate(-219.312 149.548)" fill="#6551f2"/>
  </g>
</svg>
