<svg xmlns="http://www.w3.org/2000/svg" width="40" height="32.563" viewBox="0 0 40 32.563">
  <g id="Group_10854" data-name="Group 10854" transform="translate(-46.667 -53.317)">
    <path id="Path_13909" data-name="Path 13909" d="M67.679,60.9a1.422,1.422,0,0,0-2.021,0L61.616,64.94a1.429,1.429,0,0,0,2.021,2.021l1.6-1.6v6.552a1.43,1.43,0,0,0,2.858,0V65.361l1.6,1.6a1.428,1.428,0,0,0,2.016-2.021Z" fill-rule="evenodd"/>
    <path id="Path_13910" data-name="Path 13910" d="M79.465,53.317h-25.6a7.2,7.2,0,0,0-7.2,7.2V73.258a7.2,7.2,0,0,0,7.2,7.2h2.8v2.248a3.172,3.172,0,0,0,3.172,3.172H73.494a3.173,3.173,0,0,0,3.173-3.172V80.46h2.8a7.2,7.2,0,0,0,7.2-7.2V60.519A7.2,7.2,0,0,0,79.465,53.317Zm3.272,19.941a3.276,3.276,0,0,1-3.273,3.272H53.869A3.276,3.276,0,0,1,50.6,73.258V60.519a3.276,3.276,0,0,1,3.273-3.272H79.464a3.276,3.276,0,0,1,3.273,3.272Z" fill-rule="evenodd"/>
  </g>
</svg>
