<svg xmlns="http://www.w3.org/2000/svg" width="14" height="13.469" viewBox="0 0 14 13.469">
  <path id="Union_2" data-name="Union 2" d="M8588.173-2777.7a.57.57,0,0,1-.168-.475l.35-2.772a.566.566,0,0,1,.166-.333l9.456-9.25s.009-.009.013-.013a1.761,1.761,0,0,1,1.237-.462,1.759,1.759,0,0,1,1.209.514l.853.833a.112.112,0,0,1,.016.015,1.681,1.681,0,0,1,.47,1.207,1.688,1.688,0,0,1-.526,1.183l-9.412,9.171a.585.585,0,0,1-.333.162l-2.839.38c-.025,0-.054,0-.079,0A.6.6,0,0,1,8588.173-2777.7Zm1.315-2.914-.233,1.844,1.9-.253,9.276-9.039a.012.012,0,0,1,0-.007.561.561,0,0,0,.026-.79l-.849-.829s0,0-.006,0a.6.6,0,0,0-.81-.026l-.033.03-.687.674.531.52a.557.557,0,0,1,0,.805.593.593,0,0,1-.824,0l-.531-.518Zm5.692,2.9a.57.57,0,0,1-.569-.57.569.569,0,0,1,.569-.57h6.25a.569.569,0,0,1,.57.57.571.571,0,0,1-.57.57Z" transform="translate(-8588.001 2791)" fill="#898989"/>
</svg>
