<svg xmlns="http://www.w3.org/2000/svg" width="18" height="18.002" viewBox="0 0 18 18.002">
  <g id="settings-sliders_1_" data-name="settings-sliders (1)" transform="translate(-0.026 0)">
    <path id="Path_1461" data-name="Path 1461" d="M.776,3.563H2.828a2.8,2.8,0,0,0,5.4,0h9.052a.75.75,0,0,0,0-1.5H8.224a2.8,2.8,0,0,0-5.4,0H.776a.75.75,0,0,0,0,1.5Z" transform="translate(0 0)" fill="#6551f2"/>
    <path id="Path_1462" data-name="Path 1462" d="M17.276,178.043H15.224a2.8,2.8,0,0,0-5.4,0H.776a.75.75,0,0,0,0,1.5H9.829a2.8,2.8,0,0,0,5.4,0h2.052a.75.75,0,0,0,0-1.5Z" transform="translate(0 -169.792)" fill="#6551f2"/>
    <path id="Path_1463" data-name="Path 1463" d="M17.276,354.063H8.224a2.8,2.8,0,0,0-5.4,0H.776a.75.75,0,1,0,0,1.5H2.828a2.8,2.8,0,0,0,5.4,0h9.052a.75.75,0,1,0,0-1.5Z" transform="translate(0 -339.625)" fill="#6551f2"/>
  </g>
</svg>
