<svg xmlns="http://www.w3.org/2000/svg" width="15" height="15" viewBox="0 0 15 15">
  <path id="edit-alt_2_" data-name="edit-alt (2)" d="M4.25,14H7.43a.75.75,0,0,0,.532-.217l5.19-5.2h0L15.282,6.5a.75.75,0,0,0,0-1.065L12.1,2.216a.75.75,0,0,0-1.065,0L8.922,4.338h0l-5.2,5.2a.75.75,0,0,0-.217.532v3.179A.75.75,0,0,0,4.25,14Zm7.32-10.19,2.123,2.122L12.628,6.992,10.505,4.87ZM5,10.374,9.448,5.927,11.57,8.049,7.122,12.5H5Zm11.25,5.121H2.75a.75.75,0,1,0,0,1.5h13.5a.75.75,0,1,0,0-1.5Z" transform="translate(-2 -1.994)" fill="#5a5f7d"/>
</svg>
