<svg xmlns="http://www.w3.org/2000/svg" width="18" height="18" viewBox="0 0 18 18">
  <g id="Group_2603" data-name="Group 2603" transform="translate(-1524 -21)">
    <g id="Ellipse_265" data-name="Ellipse 265" transform="translate(1524 21)" fill="none" stroke="#000" stroke-width="1">
      <circle cx="9" cy="9" r="9" stroke="none"/>
      <circle cx="9" cy="9" r="8.5" fill="none"/>
    </g>
    <path id="_67a98a038b01460a72caa8385c940a3f" data-name="67a98a038b01460a72caa8385c940a3f" d="M2.852,6.582,4.406,8.006,3.974,9.992a.615.615,0,0,0,.259.647.49.49,0,0,0,.345.129.547.547,0,0,0,.259-.043.042.042,0,0,0,.043-.043L6.65,9.69l1.77.993a.042.042,0,0,1,.043.043.683.683,0,0,0,.647-.043.615.615,0,0,0,.259-.647L8.938,8.05A8.316,8.316,0,0,0,9.628,7.4l.82-.734.043-.043a.6.6,0,0,0,.129-.647.668.668,0,0,0-.518-.432H10.06L8.031,5.331l-.82-1.856a.042.042,0,0,0-.043-.043A.465.465,0,0,0,6.693,3a.674.674,0,0,0-.561.345.042.042,0,0,1-.043.043l-.82,1.856L3.241,5.46H3.2a.743.743,0,0,0-.518.432A.776.776,0,0,0,2.852,6.582Z" transform="translate(1526.336 23)"/>
  </g>
</svg>
