<?xml version="1.0" encoding="utf-8"?>
<!-- Generator: Adobe Illustrator 24.3.0, SVG Export Plug-In . SVG Version: 6.00 Build 0)  -->
<svg version="1.1" id="Layer_1" xmlns="http://www.w3.org/2000/svg" xmlns:xlink="http://www.w3.org/1999/xlink" x="0px" y="0px"
	 viewBox="0 0 512 512" style="enable-background:new 0 0 512 512;" xml:space="preserve">
<g>
	<path fill="#ffffff" d="M491.2,138.6c-12.2-5.5-26.5-3.2-36.3,5.9l-40,37.2v-35.8c0-1.9,0-3.8-0.1-5.7c-3-67.6-58.7-120.8-126.3-120.7h-161
		c-0.1,0-0.1,0-0.2,0C57.5,19.4,0.9,76,1,145.8v161C1,365,40.6,415.6,97,429.6v39.2c0,3.7,0.9,7.3,2.5,10.6
		c5.9,11.8,20.2,16.5,32,10.7l112.2-56.3l34.9-0.6h9.8c2.9,0,5.8-0.1,8.7-0.3c5.2-0.3,10.4-1,15.5-2
		c57.3-11.1,99.6-60.1,102.2-118.4c0.1-1.9,0.1-3.8,0.1-5.7V286l40.1,37.2c6.2,5.7,14.4,8.8,22.8,8.8c4.7,0,9.3-1,13.5-2.9
		c11.8-4.8,19.6-16.3,19.6-29.1V167.6C510.9,154.8,503.1,143.3,491.2,138.6z M219.8,370l-53.1,26.6c-1.3,0.6-2.6,1-4,1
		c-5,0-9.1-4-9.1-9v-29c-52.3-22-86.3-73.2-86.3-129.9c0,0,0,0,0,0c0-77.8,63.1-140.9,140.9-140.9h0c73.3,0,134.4,56.3,140.4,129.3
		C355,295.6,297.3,363.6,219.8,370z"/>
	<g fill="#ffffff">
		<circle cx="271.9" cy="233.7" r="20.2"/>
		<circle cx="207.2" cy="233.7" r="20.2"/>
		<ellipse transform="matrix(0.9732 -0.2298 0.2298 0.9732 -49.8732 38.9917)" cx="142.5" cy="233.7" rx="20.2" ry="20.2"/>
	</g>
</g>
</svg>
